<?xml version="1.0" encoding="utf-8"?>
<!-- Generator: Adobe Illustrator 23.0.1, SVG Export Plug-In . SVG Version: 6.00 Build 0)  -->
<svg version="1.1" id="Layer_1" xmlns="http://www.w3.org/2000/svg" xmlns:xlink="http://www.w3.org/1999/xlink" x="0px" y="0px"
	 viewBox="0 0 1000 1000" style="enable-background:new 0 0 1000 1000;" xml:space="preserve">
<style type="text/css">
	.st0{fill:none;stroke:#7CB2E0;stroke-width:4;stroke-miterlimit:10;}
</style>
<g>
	<path class="st0" d="M336.03,186.24l13.66-25.74c0,0,10.17-19.38,34-14.62l26.11,8.26c0,0,13.93,8.58,25.37-5.72l18.43-16.21
		c0,0,18.75-17.79,40.99,1.59l18.11,15.89c0,0,12.39,12.39,27.01,2.86l23.2-7.31c0,0,28.28-7.94,38.77,22.88l8.9,18.11
		c0,0,4.77,11.44,23.2,11.76l20.65,1.59c0,0,31.14,1.27,29.87,37.5l0.04,17.16c0,0,2.19,16.52,18.07,20.97l19.7,8.9
		c0,0,27.01,11.76,13.03,47.66l-6.04,18.11c0,0-5.95,14.93,10.05,25.42l14.41,17.48c0,0,14.3,22.24-2.86,39.08l-16.21,17.79
		c0,0-12.71,8.9-4.13,27.65l6.99,17.79c0,0,9.53,30.82-17.79,41.31l-26.69,13.98c0,0-7.63,3.5-7.94,20.02l-1.27,18.11
		c0,0,2.22,32.41-35.27,32.73l-21.93,1.27c0,0-11.12-1.37-18.75,17.9l-9.53,17.69c0,0-10.8,27.65-44.17,14.93l-20.97-7.63
		c0,0-10.17-4.13-19.07,4.13l-19.38,17.48c0,0-20.65,18.11-45.44,0l-20.34-17.48c0,0-3.49-9.22-20.97-2.86l-17.16,6.04
		c0,0-29.5,13.35-42.24-13.98l-12.42-23.62c0,0-5.72-14.51-25.74-13.24c0,0-49.25,8.89-49.57-40.52l-1.91-22.08
		c0,0-0.32-7.94-12.71-13.66l-26.69-13.35c0,0-23.2-12.71-6.36-46.71l4.77-15.89c0,0,5.72-9.22-3.18-16.84l-21.93-26.06
		c0,0-14.3-15.89,4.77-40.04l17.79-21.29c0,0,6.99-8.26,1.59-19.07l-7.63-21.61c0,0-10.17-25.74,13.66-38.45l28.28-14.62
		c0,0,10.17-3.81,8.9-18.11l1.91-27.65c0,0,2.54-23.83,28.28-27.01l29.23-1.59C319.5,197.36,329.67,198.21,336.03,186.24z"/>
	<polyline class="st0" points="686.63,559.29 686.63,895.77 473.36,770.09 258.81,895.77 258.81,559.29 	"/>
</g>
</svg>
