<?xml version="1.0" encoding="utf-8"?>
<!-- Generator: Adobe Illustrator 23.0.1, SVG Export Plug-In . SVG Version: 6.00 Build 0)  -->
<svg version="1.1" id="Layer_1" xmlns="http://www.w3.org/2000/svg" xmlns:xlink="http://www.w3.org/1999/xlink" x="0px" y="0px"
	 viewBox="0 0 1000 1000" style="enable-background:new 0 0 1000 1000;" xml:space="preserve">
<style type="text/css">
	.st0{fill:none;stroke:#7BB2E0;stroke-width:3;stroke-miterlimit:10;}
	.st1{fill:#7BB2E0;}
</style>
<g>
	<path class="st0" d="M833.72,870.92H142.73c-23.86,0-43.21-19.34-43.21-43.21V172.29c0-23.86,19.34-43.21,43.21-43.21h564.05
		c23.86,0,156.26,145.28,170.15,170.15v528.48C876.93,851.57,857.58,870.92,833.72,870.92z"/>
	<path class="st0" d="M876.93,299.23c0,24.46-19.83,44.28-44.28,44.28h-67.39c-56.75,0-102.76-46.01-102.76-102.76v-67.39
		c0-24.46,19.83-44.28,44.28-44.28"/>
	<rect x="220.35" y="366.64" class="st1" width="24.17" height="59.08"/>
	<rect x="273.95" y="366.64" class="st1" width="316.21" height="52.05"/>
	<rect x="220.35" y="569.97" class="st1" width="24.17" height="59.08"/>
	<rect x="273.95" y="569.97" class="st1" width="316.21" height="52.05"/>
	<rect x="220.35" y="470.46" class="st1" width="33.73" height="59.08"/>
	<rect x="295.16" y="470.46" class="st1" width="441.33" height="52.05"/>
</g>
</svg>
