<?xml version="1.0" encoding="utf-8"?>
<!-- Generator: Adobe Illustrator 23.0.1, SVG Export Plug-In . SVG Version: 6.00 Build 0)  -->
<svg version="1.1" id="Layer_1" xmlns="http://www.w3.org/2000/svg" xmlns:xlink="http://www.w3.org/1999/xlink" x="0px" y="0px"
	 viewBox="0 0 1000 1000" style="enable-background:new 0 0 1000 1000;" xml:space="preserve">
<style type="text/css">
	.st0{fill:none;stroke:#7BB2E0;stroke-miterlimit:10;}
	.st1{fill:none;stroke:#FAFDFF;stroke-miterlimit:10;}
</style>
<g>
	<path class="st0" d="M763.93,625.55c0,25.26,10.67,48.12,27.68,64.2c1.9,1.79,2.32,4.66,0.86,6.82
		c-16.27,24.08-35.35,46.08-56.94,65.52c-1.89,1.71-4.71,1.73-6.75,0.2c-14.87-11.18-33.25-17.8-53.25-17.8
		c-48.89,0-88.39,39.61-88.39,88.39c0,2.81,0.1,5.63,0.42,8.44c-28.04,7.19-57.33,11.05-87.56,11.05c-7.68,0-15.28-0.21-22.82-0.7
		c-2.69-0.17-4.71-2.4-4.88-5.08c-2.95-46.15-41.34-82.71-88.22-82.71c-27.17,0-51.39,12.19-67.62,31.44
		c-1.73,2.05-4.68,2.62-6.94,1.17c-23.41-15.03-44.93-32.8-64.04-52.8c-1.82-1.91-1.86-4.85-0.25-6.94
		c11.59-14.97,18.45-33.62,18.45-53.96c0-48.89-39.61-88.39-88.39-88.39c-3.33,0-6.66,0.19-9.93,0.58c-2.62,0.31-5.1-1.23-5.78-3.78
		c-7.66-28.72-11.8-58.89-11.91-89.98c4.21-5.05,7.7-9.23,11.91-14.27c39.98-8.4,70.12-43.91,70.12-86.54
		c0-28.14-13.19-53.22-33.7-69.36c-2.08-1.64-2.75-4.51-1.43-6.81c17.97-31.23,40.67-59.49,67.03-83.65
		c1.95-1.79,4.9-1.76,6.95-0.08c20.15,16.45,47.61,24.15,76.85,17.55c37.76-8.51,68.5-49.77,67.52-88.47
		c-0.05-2.04-0.17-4.05-0.37-6.05c-0.27-2.77,1.4-5.39,4.11-6.05c26.7-6.43,54.6-9.87,83.32-9.87c9.37,0,18.67,0.38,27.89,1.08
		c2.65,0.2,4.65,2.39,4.84,5.05c3.19,46.07,41.4,82.37,88.19,82.37c27.83,0,52.64-12.93,68.9-33.04h0.1
		c27.79,17.93,52.92,39.57,74.65,64.2c1.73,1.97,1.67,4.88-0.01,6.89c-12.7,15.31-20.34,35-20.34,56.49
		c0,48.78,39.51,88.39,88.39,88.39c3.44,0,6.88-0.21,10.22-0.63c6.25,26.16,9.49,53.47,9.49,81.51c0,11.08-0.48,22-1.45,32.76
		c-0.23,2.57-2.35,4.48-4.93,4.66C800.1,540.67,763.93,578.81,763.93,625.55z"/>
	<circle class="st1" cx="500" cy="500" r="141.78"/>
</g>
</svg>
